<?xml version="1.0" encoding="UTF-8"?>
<svg xmlns="http://www.w3.org/2000/svg" xmlns:xlink="http://www.w3.org/1999/xlink" width="150px" height="150px" viewBox="0 0 150 169" version="1.1">
<g id="surface1">
<path style=" stroke:none;fill-rule:nonzero;fill:rgb(32.54902%,61.960784%,26.27451%);fill-opacity:1;" d="M 75 168.6875 C 72.671875 168.6875 70.496094 168.066406 68.476562 166.980469 L 47.824219 154.738281 C 44.71875 153.035156 46.273438 152.414062 47.203125 152.105469 C 51.398438 150.710938 52.175781 150.398438 56.523438 147.921875 C 56.988281 147.609375 57.609375 147.765625 58.074219 148.074219 L 73.914062 157.527344 C 74.535156 157.839844 75.3125 157.839844 75.777344 157.527344 L 137.734375 121.730469 C 138.355469 121.421875 138.664062 120.800781 138.664062 120.023438 L 138.664062 48.582031 C 138.664062 47.808594 138.355469 47.1875 137.734375 46.878906 L 75.777344 11.234375 C 75.15625 10.925781 74.378906 10.925781 73.914062 11.234375 L 11.957031 46.878906 C 11.335938 47.1875 11.023438 47.964844 11.023438 48.582031 L 11.023438 120.023438 C 11.023438 120.644531 11.335938 121.421875 11.957031 121.730469 L 28.882812 131.492188 C 38.042969 136.140625 43.789062 130.71875 43.789062 125.292969 L 43.789062 54.78125 C 43.789062 53.851562 44.566406 52.921875 45.652344 52.921875 L 53.570312 52.921875 C 54.503906 52.921875 55.433594 53.699219 55.433594 54.78125 L 55.433594 125.292969 C 55.433594 137.539062 48.757812 144.664062 37.113281 144.664062 C 33.539062 144.664062 30.746094 144.664062 22.824219 140.792969 L 6.523438 131.492188 C 2.484375 129.167969 0 124.828125 0 120.179688 L 0 48.738281 C 0 44.089844 2.484375 39.75 6.523438 37.425781 L 68.476562 1.628906 C 72.359375 -0.542969 77.640625 -0.542969 81.523438 1.628906 L 143.476562 37.425781 C 147.515625 39.75 150 44.089844 150 48.738281 L 150 120.179688 C 150 124.828125 147.515625 129.167969 143.476562 131.492188 L 81.523438 167.292969 C 79.503906 168.222656 77.175781 168.6875 75 168.6875 Z M 94.097656 119.558594 C 66.925781 119.558594 61.335938 107.164062 61.335938 96.625 C 61.335938 95.695312 62.113281 94.765625 63.199219 94.765625 L 71.273438 94.765625 C 72.203125 94.765625 72.980469 95.386719 72.980469 96.316406 C 74.222656 104.527344 77.796875 108.558594 94.253906 108.558594 C 107.296875 108.558594 112.886719 105.613281 112.886719 98.640625 C 112.886719 94.609375 111.335938 91.664062 90.992188 89.652344 C 74.066406 87.945312 63.507812 84.226562 63.507812 70.746094 C 63.507812 58.191406 74.066406 50.753906 91.769531 50.753906 C 111.644531 50.753906 121.429688 57.570312 122.671875 72.449219 C 122.671875 72.914062 122.515625 73.378906 122.203125 73.84375 C 121.894531 74.152344 121.429688 74.464844 120.960938 74.464844 L 112.886719 74.464844 C 112.113281 74.464844 111.335938 73.84375 111.179688 73.070312 C 109.316406 64.546875 104.503906 61.757812 91.769531 61.757812 C 77.484375 61.757812 75.777344 66.714844 75.777344 70.433594 C 75.777344 74.929688 77.796875 76.324219 97.050781 78.804688 C 116.148438 81.28125 125.15625 84.847656 125.15625 98.175781 C 125 111.8125 113.820312 119.558594 94.097656 119.558594 Z M 94.097656 119.558594 "/>
</g>
</svg>
