<?xml version="1.0" encoding="UTF-8"?>
<svg xmlns="http://www.w3.org/2000/svg" xmlns:xlink="http://www.w3.org/1999/xlink" width="100px" height="100px" viewBox="0 0 150 150" version="1.1">
<g id="surface1">
<path style=" stroke:none;fill-rule:nonzero;fill:rgb(87.058824%,29.803922%,21.176471%);fill-opacity:1;" d="M 147.171875 68.316406 L 81.679688 2.828125 C 77.910156 -0.941406 71.792969 -0.941406 68.019531 2.828125 L 54.417969 16.429688 L 71.671875 33.679688 C 75.679688 32.324219 80.277344 33.234375 83.472656 36.429688 C 86.683594 39.644531 87.585938 44.28125 86.199219 48.304688 L 102.824219 64.929688 C 106.847656 63.546875 111.488281 64.441406 114.699219 67.660156 C 119.191406 72.148438 119.191406 79.421875 114.699219 83.914062 C 110.210938 88.40625 102.933594 88.40625 98.441406 83.914062 C 95.0625 80.535156 94.230469 75.574219 95.941406 71.414062 L 80.433594 55.90625 L 80.433594 96.710938 C 81.527344 97.253906 82.5625 97.976562 83.472656 98.882812 C 87.960938 103.371094 87.960938 110.648438 83.472656 115.140625 C 78.980469 119.632812 71.703125 119.632812 67.21875 115.140625 C 62.730469 110.648438 62.730469 103.371094 67.21875 98.882812 C 68.328125 97.777344 69.613281 96.9375 70.980469 96.375 L 70.980469 55.191406 C 69.613281 54.632812 68.328125 53.800781 67.21875 52.683594 C 63.816406 49.289062 63 44.296875 64.742188 40.117188 L 47.738281 23.109375 L 2.832031 68.015625 C -0.941406 71.789062 -0.941406 77.90625 2.832031 81.679688 L 68.324219 147.167969 C 72.09375 150.941406 78.210938 150.941406 81.984375 147.167969 L 147.171875 81.984375 C 150.945312 78.210938 150.945312 72.089844 147.171875 68.316406 "/>
</g>
</svg>
