<?xml version="1.0" encoding="UTF-8"?>
<svg xmlns="http://www.w3.org/2000/svg" xmlns:xlink="http://www.w3.org/1999/xlink" width="100px" height="100px" viewBox="0 0 149 146" version="1.1">
<g id="surface1">
<path style=" stroke:none;fill-rule:nonzero;fill:white;fill-opacity:1;" d="M 74.5 0 C 33.359375 0 0 33.46875 0 74.753906 C 0 107.78125 21.347656 135.800781 50.949219 145.683594 C 54.671875 146.378906 56.039062 144.0625 56.039062 142.089844 C 56.039062 140.304688 55.96875 134.417969 55.9375 128.171875 C 35.210938 132.695312 30.835938 119.351562 30.835938 119.351562 C 27.449219 110.710938 22.566406 108.414062 22.566406 108.414062 C 15.804688 103.773438 23.074219 103.871094 23.074219 103.871094 C 30.554688 104.398438 34.496094 111.574219 34.496094 111.574219 C 41.140625 123 51.925781 119.699219 56.175781 117.789062 C 56.84375 112.957031 58.773438 109.65625 60.90625 107.792969 C 44.359375 105.902344 26.960938 99.492188 26.960938 70.847656 C 26.960938 62.6875 29.871094 56.019531 34.636719 50.785156 C 33.863281 48.902344 31.316406 41.296875 35.359375 31 C 35.359375 31 41.617188 28.992188 55.851562 38.664062 C 61.796875 37.007812 68.167969 36.175781 74.5 36.148438 C 80.832031 36.175781 87.210938 37.007812 93.164062 38.664062 C 107.382812 28.992188 113.632812 31 113.632812 31 C 117.6875 41.296875 115.136719 48.902344 114.363281 50.785156 C 119.136719 56.019531 122.027344 62.6875 122.027344 70.847656 C 122.027344 99.558594 104.601562 105.882812 88.011719 107.730469 C 90.683594 110.050781 93.0625 114.601562 93.0625 121.574219 C 93.0625 131.578125 92.976562 139.628906 92.976562 142.089844 C 92.976562 144.078125 94.320312 146.410156 98.09375 145.675781 C 127.679688 135.78125 149 107.769531 149 74.753906 C 149 33.46875 115.644531 0 74.5 0 Z M 27.902344 106.488281 C 27.738281 106.859375 27.15625 106.96875 26.625 106.714844 C 26.085938 106.46875 25.78125 105.964844 25.957031 105.589844 C 26.117188 105.210938 26.703125 105.101562 27.242188 105.359375 C 27.78125 105.601562 28.089844 106.113281 27.902344 106.488281 Z M 31.566406 109.769531 C 31.210938 110.097656 30.519531 109.945312 30.046875 109.421875 C 29.558594 108.902344 29.46875 108.203125 29.828125 107.867188 C 30.195312 107.539062 30.867188 107.691406 31.355469 108.214844 C 31.84375 108.742188 31.9375 109.433594 31.566406 109.769531 Z M 34.082031 113.964844 C 33.625 114.285156 32.878906 113.984375 32.417969 113.320312 C 31.960938 112.65625 31.960938 111.859375 32.425781 111.539062 C 32.890625 111.21875 33.625 111.507812 34.09375 112.167969 C 34.546875 112.84375 34.546875 113.640625 34.082031 113.964844 Z M 38.332031 118.828125 C 37.925781 119.277344 37.054688 119.15625 36.417969 118.542969 C 35.765625 117.9375 35.585938 117.082031 35.996094 116.632812 C 36.410156 116.179688 37.285156 116.304688 37.925781 116.917969 C 38.570312 117.519531 38.769531 118.378906 38.332031 118.828125 Z M 43.828125 120.46875 C 43.648438 121.054688 42.8125 121.320312 41.964844 121.070312 C 41.125 120.816406 40.574219 120.128906 40.742188 119.539062 C 40.917969 118.949219 41.757812 118.671875 42.609375 118.9375 C 43.449219 119.191406 44.003906 119.871094 43.828125 120.46875 Z M 50.082031 121.164062 C 50.101562 121.78125 49.386719 122.292969 48.5 122.304688 C 47.609375 122.324219 46.890625 121.824219 46.878906 121.21875 C 46.878906 120.59375 47.578125 120.089844 48.472656 120.074219 C 49.355469 120.058594 50.082031 120.550781 50.082031 121.164062 Z M 56.226562 120.929688 C 56.332031 121.53125 55.714844 122.148438 54.835938 122.3125 C 53.972656 122.46875 53.171875 122.097656 53.0625 121.503906 C 52.953125 120.886719 53.582031 120.269531 54.445312 120.109375 C 55.324219 119.957031 56.113281 120.316406 56.226562 120.929688 Z M 56.226562 120.929688 "/>
</g>
</svg>
