<?xml version="1.0" encoding="UTF-8"?>
<svg xmlns="http://www.w3.org/2000/svg" xmlns:xlink="http://www.w3.org/1999/xlink"  height="150" viewBox="0 0 150 150" version="1.1">
    <g id="surface1">
        <path style="stroke:none;fill-rule:nonzero;fill:rgb(89.019608%,30.588235%,14.901961%);fill-opacity:1;" d="M 26.453125 128.878906 L 15.648438 7.648438 L 134.351562 7.648438 L 123.53125 128.890625 L 74.972656 142.351562 Z M 26.453125 128.878906 "/>
        <path style="stroke:none;fill-rule:nonzero;fill:rgb(93.72549%,40%,16.470588%);fill-opacity:1;" d="M 75 17.558594 L 75 132.054688 L 114.265625 121.167969 L 123.519531 17.558594 Z M 75 17.558594 "/>
        <path style="stroke:none;fill-rule:nonzero;fill:rgb(100%,100%,100%);fill-opacity:1;" d="M 37.761719 32.429688 L 41.769531 77.390625 L 93.304688 77.390625 L 91.574219 96.679688 L 74.980469 101.164062 L 58.417969 96.683594 L 57.3125 84.300781 L 42.386719 84.300781 L 44.519531 108.171875 L 74.976562 116.632812 L 105.472656 108.171875 L 109.558594 62.523438 L 55.367188 62.523438 L 54.007812 47.296875 L 110.90625 47.296875 L 112.238281 32.429688 Z M 37.761719 32.429688 "/>
        <path style="stroke:none;fill-rule:nonzero;fill:rgb(92.156863%,92.156863%,92.156863%);fill-opacity:1;" d="M 75 32.429688 L 37.761719 32.429688 L 41.769531 77.390625 L 75 77.390625 L 75 62.523438 L 55.367188 62.523438 L 54.007812 47.296875 L 75 47.296875 Z M 75 32.429688 "/>
        <path style="stroke:none;fill-rule:nonzero;fill:rgb(92.156863%,92.156863%,92.156863%);fill-opacity:1;" d="M 75 101.15625 L 74.980469 101.164062 L 58.417969 96.683594 L 57.3125 84.300781 L 42.386719 84.300781 L 44.519531 108.171875 L 74.976562 116.632812 L 75 116.625 Z M 75 101.15625 "/>
    </g>
</svg>
