<?xml version="1.0" encoding="UTF-8"?>
<svg xmlns="http://www.w3.org/2000/svg" xmlns:xlink="http://www.w3.org/1999/xlink" width="100px" height="100px" viewBox="0 0 150 148" version="1.1">
<g id="surface1">
<path style=" stroke:none;fill-rule:nonzero;fill:rgb(0%,32.941176%,41.960784%);fill-opacity:1;" d="M 138.074219 114.0625 C 129.917969 113.855469 123.597656 114.675781 118.296875 116.921875 C 116.769531 117.535156 114.320312 117.535156 114.117188 119.476562 C 114.933594 120.292969 115.035156 121.621094 115.75 122.746094 C 116.972656 124.789062 119.113281 127.550781 121.050781 128.980469 C 123.191406 130.613281 125.332031 132.25 127.574219 133.679688 C 131.550781 136.132812 136.035156 137.5625 139.910156 140.015625 C 142.152344 141.445312 144.394531 143.285156 146.636719 144.816406 C 147.757812 145.632812 148.472656 146.964844 149.898438 147.472656 L 149.898438 147.167969 C 149.1875 146.246094 148.980469 144.917969 148.269531 143.898438 C 147.25 142.875 146.230469 141.957031 145.210938 140.933594 C 142.253906 136.949219 138.585938 133.476562 134.609375 130.613281 C 131.347656 128.367188 124.210938 125.300781 122.886719 121.519531 C 122.886719 121.519531 122.785156 121.417969 122.679688 121.316406 C 124.925781 121.113281 127.574219 120.292969 129.714844 119.679688 C 133.183594 118.761719 136.34375 118.964844 139.910156 118.046875 C 141.539062 117.636719 143.171875 117.125 144.804688 116.617188 L 144.804688 115.695312 C 142.96875 113.855469 141.644531 111.40625 139.707031 109.667969 C 134.507812 105.171875 128.796875 100.777344 122.886719 97.101562 C 119.726562 95.054688 115.648438 93.726562 112.285156 91.992188 C 111.0625 91.375 109.019531 91.070312 108.308594 90.050781 C 106.472656 87.800781 105.453125 84.839844 104.128906 82.179688 C 101.171875 76.5625 98.316406 70.328125 95.769531 64.402344 C 93.933594 60.417969 92.8125 56.433594 90.570312 52.753906 C 80.070312 35.382812 68.652344 24.859375 51.117188 14.539062 C 47.347656 12.394531 42.863281 11.472656 38.070312 10.351562 C 35.523438 10.246094 32.972656 10.042969 30.425781 9.941406 C 28.792969 9.226562 27.164062 7.285156 25.734375 6.363281 C 19.925781 2.6875 4.9375 -5.285156 0.65625 5.242188 C -2.09375 11.882812 4.734375 18.421875 7.078125 21.792969 C 8.8125 24.144531 11.054688 26.800781 12.277344 29.457031 C 12.992188 31.191406 13.195312 33.035156 13.910156 34.871094 C 15.542969 39.367188 17.070312 44.375 19.210938 48.566406 C 20.332031 50.710938 21.554688 52.957031 22.984375 54.898438 C 23.796875 56.023438 25.226562 56.535156 25.53125 58.375 C 24.105469 60.417969 24.003906 63.484375 23.1875 66.039062 C 19.515625 77.582031 20.945312 91.886719 26.144531 100.371094 C 27.773438 102.921875 31.648438 108.542969 36.847656 106.398438 C 41.433594 104.558594 40.414062 98.734375 41.738281 93.625 C 42.046875 92.398438 41.84375 91.582031 42.453125 90.765625 C 42.453125 90.867188 42.453125 90.96875 42.453125 90.96875 C 43.882812 93.832031 45.308594 96.589844 46.632812 99.449219 C 49.792969 104.457031 55.296875 109.667969 59.886719 113.140625 C 62.332031 114.980469 64.269531 118.148438 67.328125 119.273438 L 67.328125 118.964844 L 67.125 118.964844 C 66.511719 118.046875 65.59375 117.636719 64.777344 116.921875 C 62.945312 115.082031 60.90625 112.835938 59.476562 110.792969 C 55.195312 105.070312 51.425781 98.734375 48.058594 92.195312 C 46.429688 89.027344 45.003906 85.554688 43.675781 82.386719 C 43.066406 81.160156 43.066406 79.320312 42.046875 78.707031 C 40.515625 80.957031 38.273438 82.898438 37.152344 85.65625 C 35.214844 90.050781 35.011719 95.464844 34.296875 101.085938 C 33.890625 101.1875 34.09375 101.085938 33.890625 101.289062 C 30.628906 100.472656 29.507812 97.101562 28.285156 94.238281 C 25.226562 86.984375 24.714844 75.335938 27.367188 66.957031 C 28.078125 64.8125 31.136719 58.066406 29.914062 56.023438 C 29.304688 54.082031 27.265625 52.957031 26.144531 51.425781 C 24.816406 49.484375 23.390625 47.03125 22.472656 44.886719 C 20.027344 39.164062 18.804688 32.828125 16.152344 27.105469 C 14.929688 24.449219 12.789062 21.691406 11.054688 19.238281 C 9.117188 16.480469 6.976562 14.539062 5.449219 11.269531 C 4.941406 10.144531 4.226562 8.304688 5.039062 7.078125 C 5.246094 6.261719 5.652344 5.957031 6.46875 5.75 C 7.792969 4.628906 11.566406 6.058594 12.890625 6.671875 C 16.664062 8.203125 19.824219 9.632812 22.984375 11.78125 C 24.410156 12.800781 25.9375 14.742188 27.773438 15.253906 L 29.914062 15.253906 C 33.175781 15.96875 36.847656 15.457031 39.90625 16.378906 C 45.308594 18.113281 50.199219 20.667969 54.585938 23.429688 C 67.941406 31.910156 78.949219 43.96875 86.390625 58.375 C 87.613281 60.722656 88.125 62.871094 89.246094 65.320312 C 91.386719 70.328125 94.035156 75.4375 96.175781 80.34375 C 98.316406 85.144531 100.355469 90.050781 103.414062 94.035156 C 104.945312 96.179688 111.058594 97.304688 113.8125 98.429688 C 115.851562 99.347656 119.011719 100.164062 120.847656 101.289062 C 124.3125 103.433594 127.777344 105.886719 131.039062 108.238281 C 132.671875 109.460938 137.769531 112.019531 138.074219 114.0625 Z M 138.074219 114.0625 "/>
<path style=" stroke:none;fill-rule:nonzero;fill:rgb(0%,32.941176%,41.960784%);fill-opacity:1;" d="M 34.09375 25.265625 C 32.359375 25.265625 31.136719 25.472656 29.914062 25.777344 C 29.914062 25.777344 29.914062 25.882812 29.914062 25.984375 L 30.117188 25.984375 C 30.933594 27.617188 32.359375 28.742188 33.378906 30.171875 C 34.195312 31.808594 34.910156 33.441406 35.726562 35.078125 C 35.828125 34.976562 35.929688 34.871094 35.929688 34.871094 C 37.355469 33.851562 38.070312 32.214844 38.070312 29.765625 C 37.457031 29.046875 37.355469 28.332031 36.847656 27.617188 C 36.234375 26.59375 34.910156 26.085938 34.09375 25.265625 Z M 34.09375 25.265625 "/>
</g>
</svg>
