<?xml version="1.0" encoding="UTF-8"?>
<svg xmlns="http://www.w3.org/2000/svg" xmlns:xlink="http://www.w3.org/1999/xlink" width="150px" height="100px" viewBox="0 0 152 20" version="1.1">
<g id="surface1">
<path style=" stroke:none;fill-rule:nonzero;fill:rgb(91.764706%,10.588235%,13.333333%);fill-opacity:1;" d="M 65.621094 12.925781 L 75.664062 12.925781 L 70.351562 4.335938 L 60.605469 19.867188 L 56.167969 19.867188 L 68.023438 1.210938 C 68.539062 0.457031 69.398438 0 70.351562 0 C 71.273438 0 72.132812 0.441406 72.632812 1.179688 L 84.535156 19.867188 L 80.101562 19.867188 L 78.007812 16.398438 L 67.835938 16.398438 Z M 111.699219 16.398438 L 111.699219 0.1875 L 107.933594 0.1875 L 107.933594 17.984375 C 107.933594 18.46875 108.121094 18.941406 108.480469 19.304688 C 108.839844 19.664062 109.324219 19.867188 109.855469 19.867188 L 127.023438 19.867188 L 129.242188 16.398438 Z M 49.421875 13.492188 C 53.078125 13.492188 56.042969 10.523438 56.042969 6.847656 C 56.042969 3.171875 53.078125 0.1875 49.421875 0.1875 L 32.953125 0.1875 L 32.953125 19.867188 L 36.714844 19.867188 L 36.714844 3.660156 L 49.171875 3.660156 C 50.921875 3.660156 52.328125 5.089844 52.328125 6.847656 C 52.328125 8.605469 50.921875 10.035156 49.171875 10.035156 L 38.558594 10.019531 L 49.796875 19.867188 L 55.261719 19.867188 L 47.703125 13.492188 Z M 9.789062 19.867188 C 4.382812 19.867188 0 15.46875 0 10.035156 C 0 4.601562 4.382812 0.1875 9.789062 0.1875 L 21.164062 0.1875 C 26.570312 0.1875 30.949219 4.601562 30.949219 10.035156 C 30.949219 15.46875 26.570312 19.867188 21.164062 19.867188 Z M 20.910156 16.398438 C 24.410156 16.398438 27.246094 13.554688 27.246094 10.035156 C 27.246094 6.519531 24.410156 3.660156 20.910156 3.660156 L 10.039062 3.660156 C 6.539062 3.660156 3.703125 6.519531 3.703125 10.035156 C 3.703125 13.554688 6.539062 16.398438 10.039062 16.398438 Z M 92.394531 19.867188 C 86.988281 19.867188 82.597656 15.46875 82.597656 10.035156 C 82.597656 4.601562 86.988281 0.1875 92.394531 0.1875 L 105.90625 0.1875 L 103.703125 3.660156 L 92.644531 3.660156 C 89.144531 3.660156 86.300781 6.519531 86.300781 10.035156 C 86.300781 13.554688 89.144531 16.398438 92.644531 16.398438 L 106.214844 16.398438 L 104 19.867188 Z M 138.425781 16.398438 C 135.535156 16.398438 133.082031 14.449219 132.332031 11.765625 L 148.421875 11.765625 L 150.640625 8.292969 L 132.332031 8.292969 C 133.082031 5.621094 135.535156 3.660156 138.425781 3.660156 L 149.46875 3.660156 L 151.703125 0.1875 L 138.175781 0.1875 C 132.769531 0.1875 128.382812 4.601562 128.382812 10.035156 C 128.382812 15.46875 132.769531 19.867188 138.175781 19.867188 L 149.78125 19.867188 L 152 16.398438 Z M 138.425781 16.398438 "/>
</g>
</svg>
