<?xml version="1.0" encoding="UTF-8"?>
<svg xmlns="http://www.w3.org/2000/svg" xmlns:xlink="http://www.w3.org/1999/xlink" width="100px" height="100px" viewBox="0 0 150 135" version="1.1">
<g id="surface1">
<path style=" stroke:none;fill-rule:nonzero;fill:rgb(32.54902%,75.686275%,87.058824%);fill-opacity:1;" d="M 117.789062 46.765625 C 116.414062 46.292969 114.992188 45.84375 113.527344 45.417969 C 113.765625 44.433594 113.988281 43.464844 114.183594 42.507812 C 117.410156 26.820312 115.300781 14.183594 108.097656 10.019531 C 101.191406 6.03125 89.894531 10.191406 78.488281 20.136719 C 77.390625 21.09375 76.289062 22.105469 75.191406 23.167969 C 74.457031 22.464844 73.726562 21.785156 72.996094 21.136719 C 61.042969 10.503906 49.058594 6.019531 41.859375 10.195312 C 34.960938 14.195312 32.917969 26.078125 35.820312 40.945312 C 36.101562 42.378906 36.429688 43.847656 36.800781 45.339844 C 35.105469 45.820312 33.46875 46.335938 31.902344 46.882812 C 17.882812 51.777344 8.929688 59.449219 8.929688 67.40625 C 8.929688 75.625 18.542969 83.871094 33.140625 88.871094 C 34.292969 89.265625 35.488281 89.636719 36.722656 89.992188 C 36.320312 91.605469 35.972656 93.183594 35.679688 94.726562 C 32.910156 109.335938 35.074219 120.9375 41.957031 124.910156 C 49.066406 129.019531 60.996094 124.796875 72.609375 114.625 C 73.527344 113.820312 74.449219 112.96875 75.375 112.074219 C 76.570312 113.230469 77.765625 114.320312 78.953125 115.347656 C 90.203125 125.046875 101.316406 128.960938 108.195312 124.976562 C 115.296875 120.855469 117.601562 108.394531 114.605469 93.234375 C 114.378906 92.074219 114.113281 90.894531 113.8125 89.6875 C 114.648438 89.441406 115.472656 89.183594 116.273438 88.917969 C 131.453125 83.878906 141.328125 75.738281 141.328125 67.40625 C 141.328125 59.421875 132.085938 51.695312 117.789062 46.765625 Z M 117.789062 46.765625 "/>
<path style=" stroke:none;fill-rule:nonzero;fill:rgb(100%,100%,100%);fill-opacity:1;" d="M 114.496094 83.539062 C 113.773438 83.78125 113.027344 84.011719 112.273438 84.238281 C 110.597656 78.921875 108.335938 73.273438 105.566406 67.433594 C 108.207031 61.734375 110.382812 56.15625 112.011719 50.878906 C 113.367188 51.269531 114.679688 51.683594 115.945312 52.121094 C 128.199219 56.347656 135.671875 62.59375 135.671875 67.40625 C 135.671875 72.535156 127.601562 79.191406 114.496094 83.539062 Z M 109.058594 94.332031 C 110.382812 101.039062 110.574219 107.097656 109.695312 111.839844 C 108.90625 116.097656 107.320312 118.933594 105.359375 120.070312 C 101.1875 122.492188 92.265625 119.347656 82.640625 111.050781 C 81.539062 110.101562 80.425781 109.085938 79.3125 108.011719 C 83.042969 103.921875 86.773438 99.171875 90.410156 93.894531 C 96.8125 93.324219 102.859375 92.394531 108.339844 91.125 C 108.613281 92.21875 108.851562 93.289062 109.058594 94.332031 Z M 54.066406 119.652344 C 49.992188 121.09375 46.746094 121.136719 44.78125 120.003906 C 40.605469 117.589844 38.871094 108.277344 41.238281 95.78125 C 41.507812 94.351562 41.832031 92.882812 42.203125 91.378906 C 47.628906 92.582031 53.628906 93.445312 60.046875 93.964844 C 63.710938 99.128906 67.546875 103.875 71.410156 108.03125 C 70.566406 108.847656 69.726562 109.625 68.890625 110.359375 C 63.753906 114.855469 58.605469 118.046875 54.066406 119.652344 Z M 34.96875 83.507812 C 28.515625 81.296875 23.183594 78.425781 19.527344 75.289062 C 16.246094 72.472656 14.585938 69.675781 14.585938 67.40625 C 14.585938 62.578125 21.773438 56.417969 33.761719 52.230469 C 35.214844 51.722656 36.738281 51.246094 38.320312 50.796875 C 39.976562 56.195312 42.148438 61.835938 44.773438 67.546875 C 42.117188 73.335938 39.910156 79.070312 38.238281 84.535156 C 37.113281 84.210938 36.019531 83.867188 34.96875 83.507812 Z M 41.371094 39.855469 C 38.882812 27.117188 40.535156 17.507812 44.695312 15.097656 C 49.125 12.527344 58.917969 16.191406 69.242188 25.375 C 69.902344 25.960938 70.5625 26.574219 71.226562 27.210938 C 67.382812 31.347656 63.582031 36.058594 59.949219 41.191406 C 53.722656 41.769531 47.761719 42.699219 42.28125 43.941406 C 41.9375 42.554688 41.632812 41.191406 41.371094 39.855469 Z M 98.480469 53.984375 C 97.171875 51.714844 95.828125 49.503906 94.457031 47.351562 C 98.679688 47.886719 102.726562 48.59375 106.527344 49.464844 C 105.386719 53.128906 103.964844 56.957031 102.289062 60.882812 C 101.089844 58.601562 99.820312 56.296875 98.480469 53.984375 Z M 75.191406 31.257812 C 77.800781 34.089844 80.414062 37.25 82.984375 40.679688 C 80.394531 40.558594 77.773438 40.496094 75.128906 40.496094 C 72.511719 40.496094 69.910156 40.558594 67.335938 40.679688 C 69.90625 37.28125 72.542969 34.125 75.191406 31.257812 Z M 51.753906 54.023438 C 50.445312 56.296875 49.199219 58.585938 48.015625 60.878906 C 46.371094 56.96875 44.960938 53.121094 43.808594 49.402344 C 47.585938 48.558594 51.617188 47.863281 55.8125 47.339844 C 54.421875 49.511719 53.066406 51.742188 51.753906 54.019531 Z M 55.933594 87.878906 C 51.597656 87.394531 47.507812 86.738281 43.730469 85.914062 C 44.902344 82.132812 46.339844 78.203125 48.023438 74.207031 C 49.207031 76.5 50.460938 78.789062 51.777344 81.066406 C 53.117188 83.390625 54.507812 85.664062 55.933594 87.878906 Z M 75.347656 103.953125 C 72.667969 101.058594 69.996094 97.851562 67.382812 94.40625 C 69.917969 94.503906 72.503906 94.554688 75.128906 94.554688 C 77.828125 94.554688 80.496094 94.496094 83.121094 94.378906 C 80.542969 97.886719 77.941406 101.097656 75.347656 103.953125 Z M 102.34375 74 C 104.113281 78.042969 105.605469 81.953125 106.789062 85.667969 C 102.953125 86.546875 98.808594 87.253906 94.441406 87.777344 C 95.816406 85.597656 97.171875 83.34375 98.503906 81.027344 C 99.851562 78.6875 101.132812 76.339844 102.34375 74 Z M 93.605469 78.199219 C 91.535156 81.792969 89.410156 85.226562 87.253906 88.464844 C 83.324219 88.746094 79.265625 88.890625 75.128906 88.890625 C 71.007812 88.890625 67 88.761719 63.140625 88.511719 C 60.898438 85.230469 58.726562 81.789062 56.671875 78.230469 C 54.621094 74.679688 52.734375 71.101562 51.023438 67.542969 C 52.734375 63.976562 54.617188 60.394531 56.65625 56.851562 L 56.652344 56.851562 C 58.699219 53.300781 60.851562 49.875 63.074219 46.613281 C 67.011719 46.316406 71.050781 46.160156 75.128906 46.160156 C 79.226562 46.160156 83.269531 46.316406 87.207031 46.617188 C 89.398438 49.855469 91.535156 53.269531 93.585938 56.820312 C 95.664062 60.414062 97.570312 63.972656 99.292969 67.464844 C 97.574219 71.011719 95.671875 74.609375 93.605469 78.199219 Z M 105.273438 14.929688 C 109.707031 17.492188 111.429688 27.820312 108.644531 41.363281 C 108.46875 42.230469 108.265625 43.109375 108.050781 44 C 102.558594 42.730469 96.59375 41.785156 90.347656 41.199219 C 86.710938 36.011719 82.941406 31.292969 79.15625 27.207031 C 80.171875 26.226562 81.1875 25.292969 82.199219 24.410156 C 91.976562 15.890625 101.109375 12.523438 105.273438 14.929688 Z M 105.273438 14.929688 "/>
<path style=" stroke:none;fill-rule:nonzero;fill:rgb(32.54902%,75.686275%,87.058824%);fill-opacity:1;" d="M 75.128906 55.5625 C 81.660156 55.5625 86.953125 60.867188 86.953125 67.40625 C 86.953125 73.949219 81.660156 79.25 75.128906 79.25 C 68.601562 79.25 63.308594 73.949219 63.308594 67.40625 C 63.308594 60.867188 68.601562 55.5625 75.128906 55.5625 "/>
</g>
</svg>
